<svg xmlns="http://www.w3.org/2000/svg" width="40" height="63" viewBox="0 0 40 63" fill="none"><path d="M57.75 55.7812H55.125V39.375C55.125 26.3288 44.5462 15.75 31.5 15.75C18.4538 15.75 7.875 26.3288 7.875 39.375V55.7812H5.25C4.17375 55.7812 3.28125 56.6738 3.28125 57.75C3.28125 58.8262 4.17375 59.7188 5.25 59.7188H57.75C58.8262 59.7188 59.7188 58.8262 59.7188 57.75C59.7188 56.6738 58.8262 55.7812 57.75 55.7812Z" fill="#292D32"></path><path d="M31.5 9.84375C30.4238 9.84375 29.5312 8.95125 29.5312 7.875V5.25C29.5312 4.17375 30.4238 3.28125 31.5 3.28125C32.5762 3.28125 33.4688 4.17375 33.4688 5.25V7.875C33.4688 8.95125 32.5762 9.84375 31.5 9.84375Z" fill="#292D32"></path><path d="M13.1253 15.0935C12.6265 15.0935 12.1278 14.9098 11.734 14.516L9.10902 11.891C8.34777 11.1298 8.34777 9.86979 9.10902 9.10854C9.87027 8.34729 11.1303 8.34729 11.8915 9.10854L14.5165 11.7335C15.2778 12.4948 15.2778 13.7548 14.5165 14.516C14.1228 14.9098 13.624 15.0935 13.1253 15.0935Z" fill="#292D32"></path></svg>