<svg xmlns="http://www.w3.org/2000/svg" width="63" height="63" viewBox="0 0 63 63" fill="none"><path d="M31.5 57.96C30.7125 57.96 29.925 57.7762 29.2687 57.4087C24.36 54.7312 15.7238 51.8962 10.3163 51.1875L9.555 51.0825C6.11625 50.6625 3.28125 47.4337 3.28125 43.9425V12.2325C3.28125 10.1587 4.095 8.26871 5.59125 6.90371C7.0875 5.53871 9.03 4.88246 11.0775 5.06621C16.8525 5.51246 25.5675 8.39996 30.5025 11.4975L31.1325 11.865C31.3162 11.97 31.71 11.97 31.8675 11.8912L32.2875 11.6287C37.2225 8.53121 45.9375 5.59121 51.7387 5.09246C51.7912 5.09246 52.0012 5.09246 52.0537 5.09246C53.97 4.90871 55.9388 5.59121 57.4088 6.95621C58.905 8.32121 59.7188 10.2112 59.7188 12.285V43.9687C59.7188 47.4862 56.8838 50.6887 53.4188 51.1087L52.5525 51.2137C47.145 51.9225 38.4825 54.7837 33.6787 57.435C33.0487 57.8025 32.2875 57.96 31.5 57.96ZM10.4475 8.97746C9.6075 8.97746 8.84625 9.26621 8.2425 9.81746C7.58625 10.4212 7.21875 11.2875 7.21875 12.2325V43.9425C7.21875 45.4912 8.5575 46.9875 10.0537 47.1975L10.8413 47.3025C16.7475 48.09 25.8037 51.0562 31.0537 53.9175C31.29 54.0225 31.6313 54.0487 31.7625 53.9962C37.0125 51.0825 46.1212 48.09 52.0537 47.3025L52.9463 47.1975C54.4425 47.0137 55.7812 45.4912 55.7812 43.9425V12.2587C55.7812 11.2875 55.4138 10.4475 54.7575 9.81746C54.075 9.21371 53.2087 8.92496 52.2375 8.97746C52.185 8.97746 51.975 8.97746 51.9225 8.97746C46.9088 9.42371 38.8237 12.1275 34.4137 14.8837L33.9937 15.1725C32.55 16.065 30.5025 16.065 29.1113 15.1987L28.4813 14.8312C23.9925 12.075 15.9075 9.39746 10.7625 8.97746C10.6575 8.97746 10.5525 8.97746 10.4475 8.97746Z" fill="#292D32"></path><path d="M31.5 55.7549C30.4238 55.7549 29.5312 54.8624 29.5312 53.7861V14.4111C29.5312 13.3349 30.4238 12.4424 31.5 12.4424C32.5762 12.4424 33.4688 13.3349 33.4688 14.4111V53.7861C33.4688 54.8886 32.5762 55.7549 31.5 55.7549Z" fill="#292D32"></path><path d="M20.3438 24.2549H14.4375C13.3613 24.2549 12.4688 23.3624 12.4688 22.2861C12.4688 21.2099 13.3613 20.3174 14.4375 20.3174H20.3438C21.42 20.3174 22.3125 21.2099 22.3125 22.2861C22.3125 23.3624 21.42 24.2549 20.3438 24.2549Z" fill="#292D32"></path><path d="M22.3125 32.1299H14.4375C13.3613 32.1299 12.4688 31.2374 12.4688 30.1611C12.4688 29.0849 13.3613 28.1924 14.4375 28.1924H22.3125C23.3887 28.1924 24.2812 29.0849 24.2812 30.1611C24.2812 31.2374 23.3887 32.1299 22.3125 32.1299Z" fill="#292D32"></path></svg>