<svg xmlns="http://www.w3.org/2000/svg" width="63" height="63" viewBox="0 0 63 63" fill="none"><path d="M28.3238 39.8213C27.7988 39.8213 27.3 39.6113 26.9325 39.2438L20.58 32.8913C19.8188 32.13 19.8188 30.87 20.58 30.1088C21.3413 29.3475 22.6012 29.3475 23.3625 30.1088L28.3238 35.07L39.6113 23.7825C40.3725 23.0213 41.6325 23.0213 42.3937 23.7825C43.155 24.5438 43.155 25.8038 42.3937 26.565L29.715 39.2438C29.3475 39.6113 28.8488 39.8213 28.3238 39.8213Z" fill="#EF720E"></path><path d="M31.5 59.7188C29.8462 59.7188 28.1925 59.1675 26.9062 58.065L22.7587 54.495C22.3387 54.1275 21.2887 53.76 20.7375 53.76H16.2225C12.3375 53.76 9.1875 50.61 9.1875 46.725V42.2363C9.1875 41.685 8.82 40.6612 8.4525 40.2412L4.90875 36.0675C2.75625 33.5212 2.75625 29.505 4.90875 26.9588L8.4525 22.785C8.82 22.365 9.1875 21.3413 9.1875 20.79V16.275C9.1875 12.39 12.3375 9.24 16.2225 9.24H20.7637C21.315 9.24 22.365 8.84625 22.785 8.505L26.9325 4.935C29.505 2.73 33.5212 2.73 36.0937 4.935L40.2412 8.505C40.6612 8.8725 41.7112 9.24 42.2625 9.24H46.725C50.61 9.24 53.76 12.39 53.76 16.275V20.7375C53.76 21.2888 54.1538 22.3388 54.5213 22.7588L58.0912 26.9062C60.2962 29.4788 60.2962 33.495 58.0912 36.0675L54.5213 40.215C54.1538 40.635 53.76 41.685 53.76 42.2363V46.6988C53.76 50.5838 50.61 53.7337 46.725 53.7337H42.2625C41.7112 53.7337 40.6612 54.1275 40.2412 54.4688L36.0937 58.0388C34.8075 59.1675 33.1537 59.7188 31.5 59.7188ZM16.2225 13.1775C14.5162 13.1775 13.125 14.5687 13.125 16.275V20.7637C13.125 22.26 12.4162 24.1763 11.445 25.305L7.90125 29.4787C6.9825 30.555 6.9825 32.4188 7.90125 33.495L11.445 37.6688C12.4162 38.8238 13.125 40.7137 13.125 42.21V46.6988C13.125 48.405 14.5162 49.7962 16.2225 49.7962H20.7637C22.2862 49.7962 24.2025 50.505 25.3575 51.5025L29.505 55.0725C30.5812 55.9912 32.4712 55.9912 33.5475 55.0725L37.695 51.5025C38.85 50.5313 40.7662 49.7962 42.2887 49.7962H46.7512C48.4575 49.7962 49.8487 48.405 49.8487 46.6988V42.2363C49.8487 40.7138 50.5575 38.7975 51.555 37.6425L55.125 33.495C56.0437 32.4188 56.0437 30.5288 55.125 29.4525L51.555 25.305C50.5575 24.15 49.8487 22.2337 49.8487 20.7112V16.275C49.8487 14.5687 48.4575 13.1775 46.7512 13.1775H42.2887C40.7662 13.1775 38.85 12.4687 37.695 11.4712L33.5475 7.90125C32.4712 6.9825 30.5812 6.9825 29.505 7.90125L25.3575 11.4975C24.2025 12.4688 22.26 13.1775 20.7637 13.1775H16.2225Z" fill="#0050C3"></path></svg>